<?xml version="1.0" encoding="UTF-8"?>
<svg enable-background="new 0 0 500 500" version="1.1" viewBox="0 0 500 500" xmlns="http://www.w3.org/2000/svg">
 <path d="m55.476 337.44c12.295-4.918 24.59-10.656 36.885-12.295 13.115-0.82 17.213 3.278 27.869 8.196 18.033 8.197 38.524 3.279 54.918 14.754 13.935 9.017 2.459 10.656-8.197 10.656-8.197 0-15.574 0.819-22.951 0.819-19.672 0-37.705 2.459-55.738-4.098-9.836-4.097-26.229-9.835-32.786-18.032" fill="#5FC6C9"/>
 <path d="m56.14 339.85c11.492-4.631 22.855-9.84 35.129-12.034 10.375-1.854 18.774 3.484 27.699 7.684 9.171 4.314 19.416 5.217 29.335 6.488 5.503 0.706 10.929 1.712 16.2 3.466 4.802 1.598 11.601 4.859 14.49 9.199 0.263 0.395-9.883 1.571-10.762 1.59-5.809 0.118-11.594 0.354-17.398 0.643-11.706 0.579-23.598 0.792-35.317 0.595-11.443-0.193-21.833-2.516-32.393-6.775-8.992-3.628-19.422-7.446-25.88-15.033-2.093-2.459-5.612 1.096-3.535 3.535 6.767 7.95 17.415 11.961 26.824 15.808 12.031 4.918 23.7 7.275 36.715 7.495 14.087 0.236 28.279-0.4 42.346-1.074 5.392-0.258 21.516 2.06 24.168-5.03 1.247-3.333-1.657-6.12-3.977-8.053-4.52-3.767-9.891-6.368-15.438-8.214-12.062-4.013-25.158-3.381-37.36-6.922-10.45-3.032-18.526-9.97-29.725-10.644-14.542-0.875-29.354 7.179-42.452 12.455-2.949 1.189-1.662 6.027 1.331 4.821z"/>
 <path d="m409.49 348.37c-12.154-3.154-11.148-19.623-6.256-28.402 3.741-6.711 12.307-9.064 18.849-12.037 6.463-2.935 11.759-9.06 18.764-10.671-1.025-0.582-2.051-1.164-3.076-1.746 1.694 6.596 1.819 13.644 1.541 20.424-0.201 4.905-5.205 8.207-7.222 12.396-0.954 1.984 0.59 4.177 2.824 3.673 4.283-0.968 8.428-2.423 12.712-3.39-1.056-0.804-2.11-1.607-3.165-2.411 0.134 7.487-8.138 12.349-13.909 15.383-6.398 3.363-14.39 6.23-21.727 5.846-3.224-0.169-3.207 4.832 0 5 8.689 0.456 17.755-3.114 25.305-7.083 7.183-3.776 15.491-10.205 15.331-19.146-0.03-1.679-1.567-2.771-3.165-2.411-4.283 0.967-8.428 2.423-12.712 3.39 0.941 1.225 1.883 2.449 2.824 3.673 2.324-4.83 6.971-7.881 7.716-13.503 0.986-7.448 0.335-15.9-1.531-23.17-0.35-1.359-1.767-2.047-3.076-1.746-8.392 1.932-15.193 9.127-23.066 12.561-8.017 3.495-15.583 7.112-19.08 15.61-4.75 11.54-3.395 28.902 10.79 32.584 3.123 0.809 4.447-4.014 1.329-4.824z"/>
 <path d="m344.3 145.21c-9.408-2.399 4.768-9.96-33.051-10.049-15.018-0.035-38.136 6.356-47.458 17.373-9.321 11.017-35.475 23.069-49.034 29.849 13.441 10.682 24.23 1.352 35.247 1.352 11.864 0 19.838-10.245 31.702-10.245 11.865 0 23.729-3.39 35.594-6.78 9.322-3.39 21.491-18.479 21.491-18.479" fill="#FCB65F"/>
 <path d="m344.96 142.8c-2.012-0.555-2.158-1.085-3.037-2.888-1.076-2.207-3.067-3.626-5.296-4.525-5.19-2.091-11.203-2.277-16.712-2.544-8.416-0.409-16.596-0.014-24.859 1.648-8.006 1.61-15.861 4.396-23.008 8.353-6.205 3.436-10.255 8.824-15.637 13.234-12.617 10.337-28.431 16.925-42.919 24.146-1.847 0.921-1.376 3.293 0 4.317 5.164 3.843 10.663 5.755 17.115 5.375 5.539-0.326 10.82-2.469 16.249-3.443 2.664-0.479 5.407-0.308 8.09-0.768 2.938-0.503 5.749-1.808 8.432-3.054 6.025-2.798 11.473-6.419 18.324-6.662 7.892-0.28 15.467-1.44 23.145-3.292 6.319-1.524 13.004-2.833 18.539-6.375 6.572-4.205 12.275-10.293 17.169-16.324 2.013-2.479-1.503-6.04-3.535-3.535-4.436 5.465-9.482 10.707-15.171 14.864-5.291 3.868-12.091 4.975-18.331 6.549-7.709 1.944-15.349 2.884-23.278 3.165-11.018 0.391-19.223 9.803-30.239 10.193-5.073 0.18-9.844 1.687-14.743 2.877-7.199 1.75-13.275 0.552-19.242-3.888v4.317c13.747-6.852 27.855-13.316 40.416-22.25 5.445-3.873 9.439-9.246 14.845-13.073 6.982-4.944 15.478-7.682 23.728-9.606 8.253-1.925 16.484-2.097 24.912-1.77 5.018 0.194 11.053 0.213 15.662 2.531 1.553 0.78 1.913 1.927 2.686 3.42 1.09 2.107 3.163 3.219 5.368 3.828 3.111 0.861 4.431-3.963 1.327-4.82z"/>
 <path d="m305.52 286.01c-21.517 0-41.077 4.236-59.659 13.559-11.736 5.085-38.143 24.576-17.604 35.594 18.583 9.321 28.363-4.237 37.164-14.407 10.759-13.56 26.407-11.017 41.078-16.949" fill="#FCB65F"/>
 <path d="m305.52 283.51c-22.258 0.121-43.245 5.085-63.179 14.966-9.966 4.94-27.134 16.663-23.678 29.907 1.903 7.29 11.188 10.959 17.749 12.099 8.037 1.396 15.186-2.19 21.063-7.362 7.184-6.32 11.586-14.746 20.547-18.95 9.104-4.271 19.758-4.329 29.141-7.952 2.975-1.148 1.684-5.984-1.329-4.822-7.544 2.914-15.548 3.91-23.329 5.965-8.034 2.121-14.224 6.252-19.608 12.507-4.536 5.27-8.949 10.759-15.188 14.086-7.306 3.896-19.42 1.384-23.798-5.897-3.175-5.28 3.14-11.859 6.537-15.166 4.587-4.466 10.175-8.111 15.955-10.84 18.853-8.898 38.233-13.425 59.119-13.539 3.22-0.02 3.222-5.02-2e-3 -5.002z"/>
 <path d="m366.09 265.67c8.475 16.949 16.242 42.373 27.259 57.628 5.085 6.779 9.322 12.711 17.797 15.254 6.779 3.39 15.254 1.694 22.034 4.237 16.949 6.779 19.491 24.576 18.644 39.83-0.847 5.933-0.847 12.712-3.39 18.645-3.39 6.779-11.017 11.864-12.712 18.644 16.102 4.237 47.458-3.39 46.61 23.729-0.848 16.102-33.898 12.712-45.763 12.712-23.729 0.847-42.373-8.475-62.712-18.645-11.864-5.933-16.102-10.17-28.813-7.627-7.627 0.848-16.102 1.694-24.576 0.848-7.628-0.848-16.949-5.085-24.577-5.085-7.627 0.848-14.406 11.017-24.576 14.406-12.711 4.237-42.372 11.018-51.694-1.694-11.864-16.949 4.237-31.356 20.339-32.203 15.254-0.848 28.813 0 43.221-4.237-15.254-5.085-50-19.492-39.831-40.679 9.322-19.491 26.271-17.796 44.915-17.796" fill="#FCB65F"/>
 <path d="m363.93 266.94c7.519 15.243 12.786 31.485 20.585 46.604 7.23 14.018 17.177 27.144 33.722 29.538 4.277 0.619 8.582 0.606 12.799 1.643 3.956 0.973 7.553 3.702 10.345 6.549 5.429 5.535 7.291 13.779 7.904 21.24 0.708 8.605-0.063 18.237-2.63 26.456-2.442 7.82-10.873 12.241-13.346 20.281-0.393 1.278 0.453 2.755 1.746 3.076 12.819 3.179 36.066-2.058 43.276 12.106 1.758 3.454 2.383 8.994 0.524 12.482-1.829 3.434-6.391 4.774-9.862 5.658-8.439 2.149-17.572 1.678-26.199 1.424-12.34-0.362-23.906-0.741-35.834-4.461-13.561-4.228-26.445-11.041-38.939-17.705-4.045-2.158-8.282-4.262-12.899-4.778-6.976-0.779-14.131 1.077-21.098 1.539-7.555 0.501-14.711-0.073-22.01-2.052-5.627-1.524-11.92-3.911-17.824-2.932-5.375 0.893-10.031 5.716-14.186 8.874-5.13 3.9-10.625 5.919-16.775 7.544-11.087 2.93-25.34 5.896-36.318 1.138-6.125-2.654-9.646-9.96-8.722-16.45 1.042-7.317 8.083-12.165 14.512-14.444 7.896-2.799 17.369-1.752 25.626-2.08 8.633-0.343 17.182-1.323 25.516-3.659 2.473-0.693 2.294-4.051 0-4.822-7.658-2.576-15.107-5.705-22.143-9.695-7.042-3.995-14.898-9.554-17.266-17.715-2.745-9.466 6.382-19.486 14.221-23.198 8.879-4.204 20.091-2.974 29.607-2.955 3.225 7e-3 3.225-4.993 0-5-11.172-0.022-22.809-0.776-33.173 4.131-9.1 4.31-17.053 15.569-15.927 25.877 1.007 9.22 8.886 15.934 16.093 20.767 8.296 5.563 17.827 9.438 27.259 12.611v-4.822c-14.961 4.194-30.034 2.56-45.235 4.413-9.209 1.123-19.398 6.754-22.869 15.801-3.416 8.906 0.214 19.49 8.218 24.63 7.694 4.939 18.565 4.225 27.185 3.163 8.931-1.1 18.635-2.978 26.745-7.026 4.914-2.453 8.981-6.414 13.436-9.561 6.129-4.331 12.42-2.059 19.109-0.205 6.424 1.78 12.477 2.813 19.162 2.859 7.746 0.054 15.288-1.563 22.969-1.942 5.698-0.281 10.683 2.397 15.55 4.993 6.476 3.455 13.062 6.708 19.705 9.828 9.752 4.58 19.817 8.451 30.398 10.604 8.586 1.748 17.213 1.471 25.908 1.731 11.994 0.359 28.318 1.782 38.073-6.693 9.318-8.097 2.305-24.173-6.914-28.895-11.537-5.909-25.352-2.875-37.568-5.905 0.582 1.025 1.164 2.051 1.746 3.076 2.416-7.86 10.364-12.57 13.345-20.281 3.055-7.903 3.253-18.13 2.889-26.511-0.589-13.539-6.464-28.803-20.521-33.402-3.806-1.245-7.713-1.566-11.683-1.89-5.316-0.434-10.413-1.836-15.1-4.42-7.47-4.118-12.757-13.217-16.812-20.421-8.832-15.693-14.051-33.12-22.003-49.239-1.427-2.892-5.739-0.358-4.317 2.523z"/>
 <path d="m376.25 150.15c-14.682-10.953-44.963-11.865-55.974 3.651-7.341 10.952-11.011 15.516-22.94 20.992-10.093 3.651-18.352 7.302-26.609 14.603-19.27 17.341-19.27 41.071-3.67 62.063 15.599 20.079 57.809 20.991 81.665 20.991 23.857 0 40.374-4.563 61.479-16.428 13.765-8.214 26.61-16.429 22.022-33.77-2.754-10.952-5.506-17.341-14.682-23.73-8.259-6.389-17.435-10.952-26.61-17.341-11.928-9.126-5.505-20.079-14.681-31.031" fill="#FCB65F"/>
 <path d="m377.51 147.99c-14.681-10.546-39.164-12.223-53.97-1.074-3.741 2.817-6.06 6.643-8.715 10.418-3.173 4.509-6.791 8.395-11.426 11.412-5.072 3.302-10.878 5.082-16.397 7.46-6.082 2.621-11.619 6.117-16.74 10.297-9.197 7.504-15.168 18.037-16.729 29.767-1.585 11.906 3.012 23.894 9.416 33.696 11.269 17.246 34.045 21.491 53.064 23.583 18.879 2.077 39.024 2.657 57.742-0.759 11.043-2.016 21.526-6.21 31.499-11.268 8.745-4.436 18.104-9.695 24.605-17.197 11.499-13.269 4.106-35.649-8.204-45.827-4.676-3.865-9.876-7.143-15.027-10.324-5.913-3.652-12.779-6.935-17.491-12.125-3.568-3.929-4.018-9.872-5.05-14.824-1.006-4.824-3.047-8.981-6.072-12.846-1.985-2.538-5.498 1.027-3.535 3.535 3.959 5.059 4.756 10.898 6.06 16.976 1.228 5.729 4.103 10.348 8.622 14.055 10.856 8.907 26.163 13.325 34.695 24.989 6.562 8.97 9.783 23.641 2.468 32.854-7.382 9.297-20.539 15.25-31.073 20.002-22.444 10.127-47.242 10.055-71.354 8.445-21.241-1.418-46.285-4.984-58.398-24.575-9.334-15.095-9.777-33.415 1.387-47.632 5.537-7.05 13.19-12.074 21.209-15.864 7.082-3.347 14.348-5.389 20.729-10.118 4.889-3.622 8.487-8.52 11.911-13.479 4.12-5.972 8.959-9.499 15.963-11.534 12.422-3.611 27.76-1.292 38.287 6.27 2.624 1.89 5.118-2.45 2.524-4.313z"/>
 <path d="m306.5 180.94c-23.729 0-51.323-2.554-73.357 9.31-19.492 10.169-27.119 32.204-48.305 39.831-7.627 2.542-27.119 9.322-12.712 18.644 9.322 5.085 27.119 2.542 37.288 2.542 23.729 0 42.373-5.932 60.17-21.186 9.322-7.627 18.645-15.254 26.271-23.729" fill="#FCB65F"/>
 <path d="m306.5 178.44c-25.957-0.058-53.729-2.562-77.096 11.043-9.701 5.648-16.781 14.769-24.3 22.871-3.858 4.158-7.979 8.025-12.708 11.178-4.415 2.942-9.367 4.392-14.241 6.312-5.884 2.318-14.772 6.263-13.468 13.973 1.622 9.594 17.161 10.419 24.292 10.576 11.861 0.262 24.461-0.12 36.218-1.631 11.723-1.506 22.87-5.343 33.041-11.35 6.855-4.049 12.871-9.336 18.985-14.389 7.156-5.915 14.125-12.047 20.399-18.904 2.172-2.373-1.355-5.919-3.535-3.535-10.146 11.086-22.168 21.529-34.543 30.061-10.687 7.368-23.034 11.664-35.861 13.312-11.719 1.506-24.356 1.665-36.17 1.403-5.842-0.129-12.297-0.72-16.743-4.881-4.183-3.916 3.569-7.447 6.4-8.808 3.757-1.806 7.839-2.766 11.618-4.506 5.241-2.415 9.825-5.703 14.11-9.543 8.462-7.584 15.022-17.006 23.849-24.229 21.699-17.758 53.705-14.01 79.753-13.952 3.225 6e-3 3.224-4.994 0-5.001z"/>
 <path d="m373.73 204.73c-6.888 7.109-21.543 10.855-30.29 5.277-6.155-3.925-3.273-11.773 1.636-15.101 5.736-3.887 13.576-4.785 20.297-5.244 11.261-0.77 37.49 0.171 38.19 16.313 0.627 14.448-23.899 7.321-31.063 4.891-3.063-1.039-4.365 3.792-1.33 4.821 11.387 3.862 35.523 9.412 37.364-8.608 0.87-8.506-6.838-15.439-13.929-18.416-9.556-4.013-20.328-4.61-30.56-3.912-8.54 0.583-17.829 2.363-24.472 8.119-5.287 4.583-6.246 13.271-1.703 18.677 9.294 11.062 30.587 5.809 39.395-3.283 2.244-2.315-1.289-5.854-3.535-3.534z"/>
 <path d="m351.25 214.95c17.797 11.017-13.874 38.862 4.77 44.795 22.034 5.932 27.119-24.577 27.119-38.983" fill="#FDFDFE"/>
 <path d="m349.99 217.1c15.358 10.169-16.114 37.506 4.529 44.752 23.889 8.386 31.019-24.383 31.121-41.1 0.02-3.225-4.98-3.223-5 0-0.057 9.215-1.482 18.886-5.614 27.206-2.045 4.118-5.136 7.843-9.573 9.407-3.658 1.29-10.116 1.052-12.431-2.587-1.732-2.724 0.027-7.149 0.909-9.861 1.296-3.985 2.942-7.843 4.146-11.862 2.332-7.796 1.656-15.494-5.563-20.274-2.698-1.784-5.199 2.548-2.524 4.319z"/>
 <path d="m366.53 214.95c0 9.322-2.03 14.286 8.14 15.133 9.321 0.848 12.711-1.695 11.864-11.017" fill="#FDFDFE"/>
 <path d="m364.03 214.95c-0.03 3.882-0.787 8.226 0.545 11.97 1.347 3.784 5.299 5.166 8.975 5.547 4.007 0.415 9.132 0.79 12.398-2.114 3.21-2.854 3.385-7.287 3.086-11.287-0.238-3.195-5.24-3.218-5 0 0.176 2.348 0.546 5.438-1.164 7.345-1.776 1.981-5.907 1.352-8.2 1.172-2.706-0.211-5.375-0.753-5.731-3.797-0.338-2.897 0.069-5.928 0.092-8.836 0.025-3.225-4.975-3.223-5.001 0z"/>
 <path d="m376.56 180.96c-13.681-0.523-17.705 10.992-3.22 12.039 16.902 1.047 16.097-9.421 1.612-12.039" fill="#ED1B36"/>
 <path d="m376.56 178.46c-5.392-0.127-13.046 1.481-14.664 7.571-1.854 6.979 7.303 9.253 12.248 9.509 5.109 0.266 13.735-0.583 14.272-7.187 0.497-6.107-8.325-8.944-12.799-9.804-3.15-0.605-4.494 4.213-1.33 4.821 2.757 0.53 8.291 1.681 9.138 4.82 7e-3 0.025 8e-3 0.161-0.171 0.466-0.184 0.314-0.789 0.633-1.184 0.847-1.869 1.012-4.339 1.042-6.4 1.069-1.79 0.023-9.463-0.409-8.953-3.211 0.661-3.629 7.167-3.963 9.843-3.9 3.227 0.075 3.219-4.925 0-5.001z"/>
 <path d="m345.85 189.4c7.628-9.322-7.626-29.661-17.796-18.644-7.627 6.779-1.695 29.661 9.322 27.966" fill="#FDFDFE"/>
 <path d="m348.01 190.66c8.827-12.02-8.131-33.012-20.932-22.46-9.9 8.162-4.453 34.475 10.299 33.02 3.178-0.313 3.208-5.316 0-5-9.57 0.944-13.074-17.164-8.115-23.146 7.909-9.537 20.395 6.942 14.43 15.062-1.912 2.603 2.43 5.093 4.318 2.524z"/>
 <path d="m350.61 191.4c3.344-5.303 0.103-11.501-6.057-12.138-7.027-0.727-9.878 6.782-8.779 12.619 0.917 4.878 6.42 5.797 9.783 2.808 1.397-1.243 2.158-3.476 1.418-5.253-1.086-2.604-3.727-3.692-6.334-4.25-3.145-0.672-4.48 4.147-1.328 4.821 0.778 0.167 1.576 0.337 2.295 0.689 0.542 0.265 0.644 0.392 0.711 0.5-0.062-0.099-0.082-0.217-0.07-0.259 0.156-0.578 0.07-0.159-0.039 0.027-0.191 0.329 0.297-0.285-0.188 0.19 0.204-0.201-0.775 0.397-0.355 0.238-0.757 0.288-0.028 0.162-0.821 0.116 0.221 0.013 0.118-0.025 0.076-0.066-0.453-0.433 0.213 0.377-0.129-0.214 0.172 0.295-0.162-0.53-0.197-0.676-0.636-2.662 0.447-6.346 3.34-6.338 2.748 7e-3 3.813 2.355 2.358 4.663-1.727 2.735 2.601 5.242 4.316 2.523z"/>
 <path d="m345.67 157.33c-11.849-2.853-25.991-2.655-30.194 11.068-0.947 3.091 3.879 4.403 4.82 1.329 3.311-10.803 15.128-9.723 24.044-7.576 3.134 0.755 4.464-4.066 1.33-4.821z"/>
 <path d="m365.21 156.17c0.78-2.643 4.389-3.583 6.729-4.186 3.12-0.804 1.795-5.626-1.33-4.821-4.233 1.091-8.877 3.13-10.221 7.678-0.915 3.1 3.911 4.414 4.822 1.329z"/>
 <path d="m394.62 198.34c9.053-5.187 15.808-13.509 25.424-17.796 2.94-1.311 0.395-5.618-2.523-4.317-9.636 4.296-16.366 12.607-25.424 17.796-2.797 1.602-0.28 5.922 2.523 4.317z"/>
 <path d="m342.46 199.61c-12.391 0.143-23.061 3.992-34.313 8.816-2.956 1.267-0.406 5.573 2.523 4.317 10.451-4.48 20.28-8.001 31.789-8.133 3.223-0.037 3.226-5.037 1e-3 -5z"/>
 <path d="m344.08 199.7c-11.495 8.913-22.13 19.003-29.204 31.862-1.556 2.826 2.763 5.349 4.316 2.523 6.877-12.499 17.259-22.193 28.423-30.85 2.545-1.974-1.021-5.485-3.535-3.535z"/>
 <path d="m394.23 206.42c9.519-8.871 25.826-7.768 37.881-9.526 3.181-0.464 1.823-5.281-1.33-4.821-13.233 1.931-29.628 1.065-40.086 10.813-2.363 2.201 1.18 5.73 3.535 3.534z"/>
 <path d="m299.28 265.67c0.848 11.018-1.695 22.034 0 33.051 0.848 4.238 1.695 8.475 2.543 12.713 1.694 9.321 0 9.321-4.238 16.948-9.322 17.797-12.711 41.525-5.084 60.17 10.169 23.729 25.424 32.203 50 29.661 17.796-1.695 36.44-12.712 44.067-27.967 8.475-17.796 0.848-37.288-5.933-54.237-9.321-19.491-28.813-40.678-27.966-63.56" fill="#F9F8F7"/>
 <path d="m296.78 265.67c0.465 7.794-0.416 15.543-0.59 23.33-0.177 7.876 1.688 15.43 3.222 23.099 1.17 5.847-0.337 8.796-3.221 13.677-3.316 5.61-5.595 11.926-7.375 18.169-6.448 22.611-2.689 48.698 14.48 65.709 14.684 14.547 39.101 13.864 57.047 6.553 10.589-4.314 19.96-11.537 26.317-21.074 7.544-11.315 7.024-25.486 3.932-38.156-3.729-15.274-10.921-28.59-19.104-41.837-8.018-12.979-16.603-26.905-16.319-42.689 0.058-3.227-4.942-3.221-5 0-0.477 26.556 20.816 45.765 29.971 69.055 5.592 14.228 10.5 29.616 5.422 44.722-4.286 12.748-17.34 21.702-29.346 26.26-10.645 4.041-23.257 4.954-34.314 2.13-10.135-2.59-17.571-9.82-22.85-18.562-7.132-11.812-9.152-25.124-7.78-38.711 0.681-6.739 2.517-13.367 4.86-19.701 2.056-5.557 5.742-10.216 7.895-15.646 2.683-6.768-0.629-15.404-1.973-22.124-2.252-11.253 0.403-22.84-0.274-34.202-0.191-3.206-5.192-3.225-5-2e-3z"/>
 <path d="m362.8 294.85c-9.322 11.864-29.626 32.691-35.559 47.099-4.237 10.17-5.933 34.746 5.933 40.678 11.864 6.78 33.898 0.848 33.051-15.254-0.848-8.475-6.78-13.56-5.933-22.882 0.848-8.475 11.509-17.437 17.44-21.674" fill="#FCB65F"/>
 <path d="m361.03 293.08c-11.803 14.884-26.524 28.404-35.054 45.602-6.024 12.146-7.563 32.917 2.332 43.473 9.871 10.53 31.146 6.233 38.201-5.277 5.015-8.183 0.154-16.542-2.694-24.431-4.309-11.933 6.476-21.161 15.177-27.474 2.583-1.873 0.092-6.214-2.523-4.316-6.603 4.789-13.074 10.369-16.886 17.711-4.035 7.774-0.549 15.502 2.463 22.876 7.313 17.903-15.054 26.168-28.456 18.755-6.494-3.591-7.048-13.907-7.025-20.327 0.026-7.14 1.463-14.21 4.789-20.54 8.356-15.899 22.146-28.561 33.212-42.516 1.98-2.498-1.533-6.062-3.536-3.536z"/>
 <path d="m276.13 194.29c-15.255-0.848-28.814 5.084-40.678 13.559-13.559 10.169-22.881 25.424-40.678 29.661 14.407 3.39 33.898 4.237 47.458-2.542 15.255-6.78 37.288-20.339 37.288-38.136l-3.39-2.542z" fill="#E17CB2"/>
 <path d="m276.13 191.79c-16.411-0.646-31.978 5.896-44.669 16.031-12.249 9.782-21.424 23.163-37.352 27.279-2.346 0.606-2.437 4.269 0 4.821 11.247 2.552 22.735 3.35 34.183 1.808 10.371-1.396 20.086-6.431 28.931-11.807 8.354-5.079 16.283-11.586 21.243-20.131 2.087-3.596 3.165-7.608 3.519-11.724 0.271-3.167-2.342-4.247-4.593-5.936-2.582-1.937-5.069 2.408-2.523 4.317 1.13 0.847 2.26 1.695 3.39 2.542-0.412-0.72-0.826-1.439-1.238-2.159-0.453 15.792-16.885 26.183-29.347 32.75-16.547 8.72-34.136 9.625-52.234 5.518v4.821c14.257-3.685 23.893-14.184 34.259-23.914 12.597-11.823 28.874-19.909 46.433-19.217 3.223 0.128 3.212-4.873-2e-3 -4.999z"/>
 <path d="m374.96 180.96c1.695-5.932-8.731-17.825-2.8-22.063 10.17-5.932 11.865 7.627 11.865 14.407" fill="#FDFDFE"/>
 <path d="m377.37 181.62c1.394-6.805-4.286-12.339-4.555-18.917-0.08-1.98 2.286-2.667 3.883-2.774 1.723-0.116 2.739 1.88 3.283 3.198 1.306 3.168 1.514 6.789 1.543 10.173 0.028 3.223 5.028 3.226 5 0-0.065-7.485-1.866-20.076-12.139-18.062-4.814 0.944-7.272 5.102-6.342 9.749 0.93 4.649 5.481 10.535 4.504 15.305-0.644 3.145 4.176 4.485 4.823 1.328z"/>
 <path d="m384.06 169.58c-1.729-1.678-3.846-2.435-6.122-1.422-1.791 0.797-2.527 2.96-2.692 4.746-0.175 1.891 0.676 3.945 2.062 5.217 2.027 1.861 4.761 2.005 7.345 1.57 1.345-0.227 2.079-1.864 1.746-3.075-0.389-1.413-1.733-1.973-3.076-1.746-0.32 0.053-0.368 0.062-0.143 0.025-0.247 0.028-0.496 0.036-0.744 0.042-0.154 2e-3 -0.309-1e-3 -0.462-0.01-0.722-0.027 0.488 0.105-0.181-0.014-0.176-0.031-1.119-0.366-0.479-0.089-0.158-0.068-0.307-0.155-0.454-0.243-0.495-0.292 0.409 0.364-0.018 4e-3 -0.157-0.133-0.668-0.802-0.223-0.185-0.116-0.16-0.479-0.931-0.169-0.189-0.094-0.225-0.156-0.461-0.211-0.698-0.119-0.522 0.058 0.625 7e-3 0.095-0.013-0.141-0.014-0.284-0.014-0.425 2e-3 -0.093 6e-3 -0.187 0.013-0.279 0.032-0.521-0.108 0.627-0.013 0.121 0.041-0.216 0.109-0.426 0.186-0.633-0.285 0.771-0.034 0.132 0.095-0.063-0.4 0.604-0.241 0.302-0.091 0.146 0.313-0.326-0.525 0.359-0.155 0.109 0.501-0.339-0.572 0.141 0.019 2e-3 -0.478 0.05-0.584 0.068-0.32 0.054 0.472-0.019-0.656-0.132-0.171-0.032 0.626 0.128-0.41-0.263 0.209 0.082 0.112 0.063 0.561 0.404 0.07 0.016 0.16 0.126 0.306 0.269 0.451 0.41 2.314 2.244 5.852-1.288 3.535-3.536z"/>
 <path d="m357.75 235.16c-7.84 12.328-7.627 28.813 8.475 23.729 4.237-0.848 12.712-7.627 11.017-12.712-2.542-6.78-11.017-0.848-13.56 2.542-2.542-5.085 0-11.017-5.932-13.559" fill="#EC1E37"/>
 <path d="m355.59 233.9c-3.85 6.281-7.213 14.913-4.387 22.231 2.782 7.203 11.104 6.936 17.233 4.679 6.415-2.36 13.865-9.709 10.485-16.908-3.511-7.475-13.728-0.983-17.01 3.052 1.309 0.168 2.617 0.337 3.926 0.506-2.373-5.538-0.582-11.214-6.828-14.457-2.857-1.483-5.386 2.831-2.523 4.317 4.232 2.197 3.313 8.644 5.035 12.663 0.603 1.407 2.981 1.667 3.926 0.506 1.271-1.563 2.735-2.767 4.454-3.82 2.518-1.542 6.301-1.134 4.547 2.715-2.166 4.752-7.986 7.471-12.9 7.933-11.451 1.074-4.424-16.353-1.642-20.893 1.691-2.758-2.636-5.268-4.316-2.524z"/>
 <path d="m232.12 317.98c-4.206 2.124-8.373 4.97-10.299 9.443-1.26 2.928 3.046 5.478 4.317 2.523 1.619-3.762 4.979-5.869 8.505-7.65 2.879-1.453 0.347-5.766-2.523-4.316z"/>
 <path d="m240.4 323.71c-4.343 1.232-7.215 4.981-9.186 8.841-1.463 2.865 2.851 5.396 4.317 2.523 1.35-2.643 3.159-5.681 6.198-6.542 3.097-0.879 1.78-5.704-1.329-4.822z"/>
 <path d="m332.07 375.25c2.693 3.72 4.059 8.317 8.59 10.299 2.924 1.279 5.472-3.027 2.523-4.316-3.607-1.578-4.635-5.521-6.795-8.506-1.87-2.585-6.212-0.094-4.318 2.523z"/>
 <path d="m345.75 371.83c2.914 3.867 5.938 7.781 9.793 10.762 1.077 0.833 2.48 1.055 3.535 0 0.872-0.871 1.08-2.7 0-3.535-3.516-2.719-6.351-6.219-9.011-9.75-1.915-2.541-6.258-0.055-4.317 2.523z"/>
 <path d="m451.32 444.07c6.838-0.854 20.513 6.838 14.53 13.675-3.419 2.564-18.804 0.855-22.223 0" fill="#FCB65F"/>
 <path d="m451.32 446.57c3.451-0.265 6.665 1.007 9.581 2.759 2.032 1.222 6.383 5.788 2.055 6.88-5.59 1.411-13.104 0.402-18.663-0.875-3.139-0.721-4.472 4.1-1.33 4.822 4.334 0.995 8.909 1.287 13.339 1.426 4.243 0.133 9.49 0.314 12.293-3.338 3.055-3.981 0.119-8.968-3.049-11.688-3.74-3.212-9.268-5.366-14.226-4.986-3.193 0.244-3.218 5.246 0 5z"/>
 <path d="m464.15 436.38c6.838 0 20.514-0.854 21.368 9.401 0.854 7.692-8.547 10.257-14.53 9.402" fill="#FCB65F"/>
 <path d="m464.15 438.88c5.461-0.019 12.783-0.798 17.158 3.152 2.896 2.616 2.045 7.087-0.959 9.062-2.676 1.759-6.284 1.94-9.361 1.59-3.2-0.364-3.165 4.64 0 5 9.261 1.055 19.893-4.692 16.319-15.322-3.052-9.081-15.535-8.508-23.157-8.481-3.224 0.01-3.225 5.01 0 4.999z"/>
 <path d="m241.07 431.25c-11.111-1.71-11.111 16.239-0.854 15.385" fill="#FCB65F"/>
 <path d="m241.07 428.75c-13.816-1.694-14.484 21.059-0.854 20.385 3.209-0.159 3.224-5.159 0-5-3.403 0.168-5.089-2.294-5.085-5.514 3e-3 -3.571 2.627-5.277 5.94-4.871 3.194 0.392 3.157-4.612-1e-3 -5z"/>
 <path d="m232.62 423.38c-11.111-2.564-18.052 23.258-4.377 22.402" fill="#FCB65F"/>
 <path d="m233.29 420.97c-15.34-2.772-22.076 27.723-5.042 27.313 3.219-0.077 3.226-5.077 0-5-9.656 0.232-4.245-18.931 3.712-17.491 3.153 0.569 4.499-4.249 1.33-4.822z"/>
 <path d="m228.25 409.39c-5.983 3.419-20.699 17.415-8.733 25.107" fill="#FCB65F"/>
 <path d="m226.99 407.23c-9.742 5.851-21.373 20.455-8.733 29.426 2.636 1.87 5.129-2.469 2.523-4.318-8.816-6.257 2.747-17.195 8.733-20.789 2.761-1.658 0.248-5.983-2.523-4.319z"/>
 <path d="m464.15 423.56c8.548-0.854 20.514 5.128 20.514 14.53" fill="#FCB65F"/>
 <path d="m464.15 426.06c7.313-0.517 17.629 3.545 18.014 12.03 0.146 3.211 5.146 3.225 5 0-0.51-11.231-12.759-17.755-23.014-17.03-3.198 0.225-3.22 5.227 0 5z"/>
 <path d="m253.46 161.34c22.951 3.279 55.74 2.761 78.691 1.941 13.935-0.82 28.688-3.279 40.164-10.656 9.836-6.557-0.718-11.476-0.718-22.951 0-18.033 16.291-41.803 8.914-59.017-9.016-20.49-36.88-23.77-57.371-22.951-27.882 1.114-52.629 15.379-65.769 40.223-2.632 4.978-7.098 12.515-6.932 18.277 0.166 5.788 4.966 12.603 6.536 18.281 2.838 10.27 6.076 27.458-3.955 35.087" fill="#fff"/>
 <path d="m252.79 163.75c25.749 3.563 52.053 2.959 77.968 2.08 13.195-0.448 26.635-2.729 38.549-8.597 3.917-1.929 7.982-4.358 9.452-8.682 1.187-3.49-1.25-7.511-2.636-10.545-5.046-11.048 0.811-23.93 4.226-34.658 3.265-10.256 6.534-21.548 3.036-32.17-6.662-20.227-31.931-25.285-50.363-26.009-28.415-1.115-55.438 9.475-72.463 32.832-4.19 5.749-7.685 12.358-10.452 18.901-2.892 6.837-2.275 12.318 0.588 19.026 4.963 11.626 12.567 31.936 0.554 41.881-2.486 2.058 1.071 5.575 3.535 3.535 7.872-6.517 8.327-17.459 6.892-26.854-0.769-5.026-1.837-10.047-3.8-14.751-2.833-6.792-6.207-12.053-3.729-19.521 3.814-11.497 11.864-22.645 20.643-30.809 8.939-8.314 20.149-13.819 31.897-16.862 11.041-2.859 22.796-2.952 34.092-1.854 10.975 1.068 22.515 4.183 30.854 11.728 19.442 17.589-1.317 45.262-2.516 66.016-0.246 4.278 1.001 8.227 2.688 12.093 0.813 1.861 1.96 3.726 2.19 5.781 0.326 2.905-3.752 4.68-5.763 5.833-11.525 6.611-25.844 8.291-38.887 8.733-24.961 0.847-50.426 1.484-75.227-1.949-3.15-0.436-4.51 4.381-1.328 4.822z"/>
 <path d="m251.1 105.49c-20.491-14.754-22.232-47.128 3.178-64.341 18.033-11.475 43.442 4.099 46.722 23.771" fill="#fff"/>
 <path d="m252.36 103.33c-17.695-13.179-18.542-38.297-3.896-54.052 8.233-8.857 18.746-11.624 30.075-7.376 10.078 3.779 18.047 13.164 20.048 23.68 0.603 3.166 5.421 1.821 4.822-1.329-2.27-11.927-11.271-22.061-22.389-26.692-12.949-5.395-25.156-2.275-35.134 7.212-18.542 17.631-16.332 47.769 3.95 62.874 2.59 1.928 5.078-2.415 2.524-4.317z"/>
 <path d="m336.25 61.64c1.639-8.197 15.573-18.033 22.95-21.312 7.377-2.459 21.312-1.64 27.869 2.459 22.131 13.115 8.196 38.524-6.558 49.18" fill="#fff"/>
 <path d="m338.66 62.305c2.201-8.646 12.624-15.063 19.99-18.948 7.971-4.204 21.067-2.205 28.417 2.375 18.242 11.367 5.03 34.535-7.818 44.077-2.558 1.899-0.068 6.242 2.523 4.317 16.189-12.023 28.542-36.986 8.997-51.899-7.956-6.071-23.605-8.327-32.832-4.057-9.205 4.26-21.436 12.346-24.1 22.806-0.795 3.126 4.027 4.452 4.823 1.329z"/>
 <path d="m288.7 68.197c-9.837-7.377-2.459-32.787 4.098-40.164 7.377-8.196 18.033-12.295 28.688-11.475 27.05 1.639 45.082 22.951 36.886 48.36" fill="#FDFDFE"/>
 <path d="m290.47 66.43c-7.475-6.197-3.51-19.892-0.775-27.524 4.409-12.308 15.799-19.534 28.752-19.948 11.59-0.371 23.49 4.361 31.396 12.815 8.265 8.836 9.533 21.296 6.12 32.482-0.943 3.092 3.884 4.404 4.822 1.329 3.926-12.869 1.95-25.947-6.621-36.448-9.032-11.065-24.85-16.063-38.742-15.016-13.832 1.043-25.027 9.815-30.139 22.385-3.824 9.403-7.525 25.854 1.651 33.461 2.462 2.04 6.021-1.477 3.536-3.536z"/>
 <path d="m37.815 334.29c14.369 3.992 26.931 12.362 40.496 18.313 12.556 5.508 25.665 8.672 39.262 10.161 15.266 1.671 30.846 1.481 46.142 0.294 5.991-0.465 11.816-1.504 17.722-2.491 5.24-0.876 10.524-1.32 15.563-3.118 24.517-8.752-6.52-37.481-16.983-44.162-19.109-12.202-43.043-15.09-65.239-14.872-14.837 0.146-30.487 1.325-44.888 5.057-14.515 3.761-25.062 13.264-34.816 24.181-2.141 2.396 1.383 5.944 3.535 3.535 7.566-8.468 15.526-16.478 26.231-20.81 10.789-4.367 23.075-5.258 34.567-6.221 23.351-1.956 48.208-0.967 69.815 8.954 10.813 4.965 19.694 12.407 26.77 21.914 3.398 4.565 8.189 11.959 1.988 16.41-4.194 3.011-10.679 3.27-15.616 3.973-28.784 4.101-58.947 6.156-87.311-1.974-19.663-5.637-36.25-18.504-55.91-23.967-3.111-0.863-4.431 3.961-1.328 4.823z"/>
 <path d="m33.521 329.42c0.419 13.796 8.317 26.108 9.738 39.842 1.323 12.786-0.442 25.853 3.807 38.232 6.18 18.003 24.435 23.479 41.435 26.377 15.092 2.571 30.454 3.531 45.749 3.191 12.511-0.279 23.176-2.23 33.219-10.183 9.483-7.509 17.283-15.853 21.958-27.108 4.532-10.914 5.966-22.863 9.816-34.012 1.732-5.016 4.088-9.909 7.398-14.081 1.982-2.497-1.531-6.061-3.535-3.535-14.53 18.306-11.021 44.486-25.719 62.612-7.569 9.334-18.42 17.943-30.318 20.467-7.164 1.521-15.206 0.973-22.489 0.898-7.71-0.079-15.408-0.637-23.07-1.464-18.218-1.964-42.209-4.803-49.622-24.492-4.601-12.223-2.499-25.978-3.816-38.711-1.356-13.106-9.151-24.898-9.55-38.034-0.099-3.216-5.1-3.226-5.001 1e-3z"/>
 <path d="m142.36 421.87c-7.377 0.82-4.099 10.656 0 13.935 3.278 4.099 12.295 7.377 17.213 9.836 7.377 2.459 20.492 5.738 24.59-3.278 8.197-19.673-30.328-29.509-41.803-20.493" fill="#B2B3B3"/>
 <path d="m141.7 419.46c-5.835 1.095-7.07 6.404-5.451 11.495 2.15 6.758 8.845 10.637 14.827 13.501 9.275 4.44 30.044 12.808 35.502-1.428 8.516-22.213-31.049-33.909-45.476-23.315-2.57 1.887-0.08 6.229 2.523 4.316 5.838-4.286 14.457-3.385 21.088-1.871 7.055 1.611 16.134 5.498 17.956 13.288 3.071 13.134-14.511 10.271-21.478 8.096-5.166-1.613-11.203-4.59-15.467-7.908-2.583-2.011-8.875-10.193-2.697-11.352 3.169-0.594 1.824-5.413-1.327-4.822z"/>
 <path d="m121.87 412.85c3.279-2.459 15.574-14.755 19.672-12.295 4.098 2.459 0.82 16.393 0 19.672-3.279 15.573-11.476 22.95-27.869 18.032" fill="#F5EB23"/>
 <path d="m123.64 414.62c4.109-3.205 7.772-6.893 12.114-9.814 1.862-1.253 4.423-3.401 5.146-0.389 0.786 3.275-0.151 7.313-0.747 10.536-1.123 6.07-2.492 12.663-6.479 17.548-4.849 5.941-12.703 5.222-19.335 3.35-3.109-0.877-4.427 3.947-1.329 4.822 8.312 2.345 16.984 2.454 23.521-3.894 6.071-5.895 7.77-15.728 8.991-23.744 0.847-5.562 1.614-16.46-6.948-15.09-7.046 1.128-13.129 8.973-18.47 13.14-2.539 1.981 1.026 5.493 3.536 3.535z"/>
 <path d="m88.262 342.16c-10.656-19.673-18.033-25.21-25.41-46.521-4.918-15.573 7.377-27.868 22.951-24.59 19.672 4.099 19.672 36.886 21.312 52.459 0.82 6.558 3.279 14.754 3.279 21.312 0 9.835-13.935-2.66-22.132-2.66" fill="#EA8923"/>
 <path d="m90.421 340.9c-8.683-15.851-21.805-30.626-25.85-48.636-2.055-9.15 4.108-17.017 12.816-18.955 7.93-1.765 14.996 2.254 19.022 8.845 7.006 11.47 6.866 26.719 8.041 39.685 0.371 4.095 1.229 8.114 2.034 12.141 0.617 3.083 1.135 6.162 1.368 9.301 0.153 2.062 0.424 3.092-1.734 2.585-6.218-1.462-11.271-5.876-17.855-6.203-3.224-0.16-3.208 4.841 0 5 4.037 0.201 7.843 2.421 11.448 4.054 2.583 1.17 6.243 3.109 9.189 2.226 2.931-0.881 3.845-3.26 3.994-6.12 0.325-6.234-1.774-12.773-2.888-18.845-2.99-16.289-0.477-35.441-11.328-49.356-10.707-13.73-33.917-10.305-38.782 6.906-2.885 10.209 3.602 21.839 8.296 30.537 5.446 10.09 12.396 19.292 17.911 29.36 1.55 2.827 5.868 0.305 4.318-2.525z"/>
 <path d="m133.48 350.13c-6.558-22.131 11.342-95.477 42.49-63.509 7.377 8.196 3.279 11.475-2.459 18.853-5.738 6.557-9.836 13.934-15.574 19.672-6.558 8.196-12.163 25.803-24.457 24.984" fill="#EA8923"/>
 <path d="m135.89 349.47c-3.121-11.076-0.78-24.066 1.856-34.987 2.651-10.979 7.196-25.66 17.605-31.773 4.397-2.582 9.18-1.479 13.306 1.04 3.568 2.178 7.394 5.702 8.682 9.727 1.423 4.443-6.501 11.218-8.87 14.248-5.943 7.604-12.491 15.076-17.402 23.389-3.916 6.627-8.598 16.723-17.588 16.522-3.226-0.072-3.219 4.929 0 5 9.401 0.209 15.037-7.638 19.473-14.887 6.276-10.257 13.597-19.83 21.199-29.181 3-3.688 6.666-7.37 8.044-12.033 1.38-4.668-2.169-9.382-5.235-12.453-4.566-4.575-10.678-8.356-17.363-7.832-13.45 1.054-20.458 17.47-24.188 28.337-4.646 13.532-7.537 29.59-4.916 43.835 0.148 0.804 0.354 1.593 0.575 2.379 0.874 3.097 5.698 1.779 4.822-1.331z"/>
 <path d="m72.688 272.69c-1.639-22.131-38.524-53.279-51.639-24.59-11.476 25.41 25.41 12.295 37.705 18.033 4.099 1.64 9.836 9.836 13.115 7.377 2.459-1.64 0.82-16.394 0.82-19.672 0-10.656 1.639-18.033 10.656-24.59 10.656-8.197 19.672-7.377 22.131 7.377 2.459 13.115-10.656 9.836-18.853 14.754-6.558 4.099-10.656 11.476-13.115 18.032" fill="#60BC50"/>
 <path d="m75.188 272.69c-1.565-16.439-15.806-32.365-31.223-37.489-7.255-2.411-14.851-0.91-20.308 4.468-4.609 4.542-9.156 13.854-6.594 20.391 2.161 5.516 8.736 6.546 13.924 6.933 7.244 0.541 14.518-0.431 21.761 0.22 3.845 0.345 6.424 1.878 9.323 4.391 2.845 2.466 5.794 5.329 9.818 4.657 6.325-1.056 3.658-15.882 3.417-19.801-0.548-8.886 0.623-17.259 7.424-23.546 3.199-2.958 7.664-5.975 12.114-6.354 5.126-0.436 6.99 5.233 7.931 9.201 1.098 4.63 0.342 7.654-4.271 9.196-3.542 1.185-7.245 1.648-10.722 3.073-8.541 3.501-13.512 12.56-16.685 20.715-1.171 3.01 3.666 4.301 4.821 1.33 2.521-6.481 6.094-12.58 11.966-16.539 3.665-2.47 8.71-2.675 12.825-4.051 8.825-2.951 8.661-12.162 5.483-19.608-3.525-8.26-10.816-9.823-18.587-6.29-9.385 4.266-16.005 12.935-17.061 23.163-0.437 4.229-0.316 8.351-0.063 12.576 0.132 2.208 0.219 4.416 0.241 6.628 0.01 1.037-0.033 2.071-0.087 3.106-0.073 1.399 0.211 2.691-1.175 1.998-3.723-1.86-6.107-5.644-10.004-7.326-2.861-1.236-6.027-1.525-9.109-1.692-7.261-0.393-14.619 0.716-21.848-0.289-2.37-0.329-5.251-0.937-6.609-3.106-2.008-3.207 0.977-8.762 2.448-11.508 12.979-24.23 44.292 9.185 45.85 25.553 0.303 3.181 5.306 3.21 5 0z"/>
 <path d="m170.23 277.61c18.033-4.099 40.983-15.574 50 9.836 3.279 9.017 3.279 19.672-8.197 20.492-13.115 0.819-13.115-11.476-19.672-19.673-4.099-4.098-8.197-7.377-13.935-9.016-7.377-2.46-6.558-0.82-10.656-8.197-5.738-11.476-8.197-20.492-19.672-27.869-6.557-4.918-19.672-11.476-25.41-1.64-7.377 13.115 11.476 16.394 19.672 18.853s23.771 8.196 24.59 18.853" fill="#60BC50"/>
 <path d="m170.89 280.02c9.182-2.146 18.209-5.702 27.716-6.059 11.668-0.438 18.076 8.14 20.537 18.739 1.186 5.11 0.513 10.73-5.144 12.422-6.403 1.915-10.659-2.05-13.404-7.225-1.963-3.7-3.415-8.407-6.471-11.401-4.42-4.332-9.091-7.761-15.038-9.659-4.391-1.401-6.12-1.667-8.448-5.768-2.979-5.247-5.089-10.941-8.07-16.196-4.994-8.803-13.555-15.333-22.792-19.209-8.785-3.687-17.769-1.094-20.846 8.375-2.549 7.843 4.962 12.732 11.107 15.226 5.313 2.156 11.032 3.204 16.438 5.114 6.743 2.383 16.946 6.73 17.97 14.869 0.397 3.154 5.402 3.193 5 0-2.411-19.163-27.743-19.25-41.087-26.208-4.442-2.316-5.877-5.67-3.517-10.236 3.289-6.36 11.495-3.475 16.328-1.039 10.988 5.54 16.845 14.431 21.884 25.225 1.794 3.842 3.5 8.404 6.597 11.432 2.869 2.804 8.377 3.064 11.871 4.675 5.505 2.538 9.574 7.025 12.292 12.312 2.061 4.01 3.721 8.151 6.975 11.382 5.935 5.891 17.251 4.682 21.899-2.059 5.052-7.325 0.253-19.46-3.953-25.939-11.16-17.19-33.72-7.205-49.174-3.595-3.138 0.734-1.807 5.554 1.33 4.822z"/>
 <path d="m98.918 415.31c0.82-7.377 2.459-9.017 6.558-14.754 8.196-11.476 12.295-4.099 14.754 4.918 1.639 7.377 5.738 20.491 3.279 27.868-2.459 8.197-14.754 9.836-21.312 5.738" fill="#ED1B2F"/>
 <path d="m101.42 415.31c0.823-6.462 4.798-13.972 10.302-17.7 4.254-2.882 6.992 12.27 7.566 14.619 1.6 6.537 4.423 15.414 1.209 21.842-2.89 5.779-12.267 5.552-17.037 2.851-2.81-1.59-5.329 2.729-2.523 4.318 6.956 3.938 16.463 3.293 22.248-2.443 7.106-7.048 2.603-21.039 0.6-29.227-1.236-5.053-3.893-19.795-12.313-17.207-4.583 1.409-7.211 5.631-9.875 9.324-3.089 4.284-4.51 8.395-5.176 13.623-0.408 3.192 4.597 3.153 4.999 0z"/>
 <path d="m79.326 431.14c-18.853 4.099-5.818-65.822 11.395-34.675 3.279 5.737 6.558 12.295 8.197 18.853 0.82 3.278 4.918 13.935 4.918 16.394-3.278 18.032-27.869-1.64-31.147-7.378" fill="#F5EB23"/>
 <path d="m78.662 428.72c-7.521 1.388-6.165-14.941-5.749-18.788 0.409-3.779 3.081-20.286 9.5-18.928 5.164 1.094 8.66 11.196 10.466 14.969 3.578 7.47 6.148 16.506 8.238 24.554 0.764 2.938-1.648 5.893-4.532 6.113-3.052 0.233-6.203-1.381-8.8-2.774-4.616-2.477-10.125-6.246-12.938-10.803-1.69-2.737-6.016-0.229-4.317 2.523 4.909 7.953 25.017 23.476 33.32 12.474 5.12-6.784 0.072-15.078-2.136-22.071-2.923-9.257-6.388-20.655-13.835-27.456-9.269-8.464-16.246 5.195-18.342 12.678-2.384 8.512-4.818 24.631 3.424 30.976 2.068 1.592 4.534 1.816 7.03 1.356 3.168-0.586 1.822-5.404-1.329-4.823z"/>
 <path d="m72.688 414.49c-11.476 0-23.771 0-34.426 4.918-11.475 4.918-15.574 17.214-1.639 21.312 9.836 2.459 28.688 4.099 36.885-0.819 12.295-6.558 9.016-18.034-0.82-25.411" fill="#B2B3B3"/>
 <path d="m72.688 411.99c-14.238 5e-3 -33.683-0.496-43.975 11.31-2.899 3.324-4.272 7.889-2.703 12.109 1.993 5.358 8.073 7.395 13.149 8.429 11.771 2.398 26.174 3.658 36.96-2.557 12.518-7.214 7.707-21.192-1.664-28.559-2.504-1.969-6.069 1.544-3.535 3.535 3.663 2.88 6.761 6.214 7.899 10.844 1.304 5.307-3.402 8.896-7.428 11.11-7.853 4.32-20.114 2.557-28.526 1.231-4.169-0.656-9.296-1.392-11.86-5.143-2.775-4.059 2.085-8.844 5.097-10.918 10.186-7.015 24.807-6.389 36.586-6.393 3.225 1e-3 3.225-4.999 0-4.998z"/>
</svg>
